<svg viewBox="0 0 672 723" xmlns="http://www.w3.org/2000/svg"><path d="m213.9 584.4c-47.4-25.5-84.7-60.8-111.8-106.1-27.1-45.2-40.7-96.3-40.7-153.4 0-57 13.6-108.1 40.7-153.3s64.4-80.6 111.8-106.1 100.7-38.2 159.9-38.2c49.9 0 95 8.8 135.3 26.3s74.1 42.8 101.5 75.7l-85.5 78.9c-38.9-44.9-87.2-67.4-144.7-67.4-35.6 0-67.4 7.8-95.4 23.4s-49.7 37.4-65.4 65.4c-15.6 28-23.4 59.8-23.4 95.4s7.8 67.4 23.4 95.4 37.4 49.7 65.4 65.4c28 15.6 59.7 23.4 95.4 23.4 57.6 0 105.8-22.7 144.7-68.2l85.5 78.9c-27.4 33.4-61.4 58.9-102 76.5-40.6 17.5-85.8 26.3-135.7 26.3-58.6 0-111.6 187.2-159-38.3z" fill="#c2d5ff"/><circle cx="375.4" cy="322.9" fill="#fb4" r="100"/></svg>