<svg xmlns="http://www.w3.org/2000/svg" width="2.24in" height="2.41in" viewBox="0 0 699 752" shape-rendering="geometricPrecision" text-rendering="geometricPrecision" image-rendering="optimizeQuality" fill-rule="evenodd" clip-rule="evenodd"><defs><style>.fil0{fill:none}.fil4{fill:#37b629}.fil3{fill:#5271fa}.fil1{fill:#fbbe4c}.fil2{fill:#fc615a}</style></defs><g id="Layer_x0020_1"><g id="_880420432"><path class="fil0" d="M0 0H699V752H0z"/><path class="fil1" d="M322 279c29 0 100 3 118-5 14-6 16-18 36-42 8-10 9-10 20-19l32-29c9-10 62-50 8-83-30-18-79-38-112-45-83-19-169-5-242 36l-11 6c-13 7-23 12-30 27 0 1-1 2-1 3-3 8-3 10 0 18 4 14 104 113 116 121 20 15 37 11 67 11z"/><path class="fil2" d="M266 476L145 595c-24 34 35 63 69 80 96 47 242 34 324-31 43-35 19-47-28-93-14-14-68-72-84-76s-151-4-159 2z"/><path class="fil3" d="M251 367c0-90 7-67-44-117-69-70-92-117-130-58-63 99-76 213-26 322 12 27 44 96 82 62 27-24 53-52 81-81 49-50 36-38 36-129z"/><path class="fil4" d="M447 380c0 86-7 73 42 121 11 11 73 77 81 81 29 15 39-8 50-24 12-19 20-29 31-52 49-102 29-222-32-317-35-54-62-8-133 64-49 50-38 37-38 126z"/></g></g></svg>